<svg width="170" height="51" viewBox="0 0 170 51" fill="none" xmlns="http://www.w3.org/2000/svg">
<g clip-path="url(#clip0)">
<path d="M156.462 4.13912e-05H13.5454C13.0244 4.13912e-05 12.5097 4.13913e-05 11.9902 0.00255618C11.5552 0.00507098 11.1238 0.0123764 10.6847 0.0185251C9.73072 0.0284608 8.77902 0.102741 7.83783 0.24072C6.89797 0.381702 5.98755 0.647495 5.13736 1.02911C4.28821 1.41395 3.51232 1.91401 2.83783 2.51115C2.15981 3.10661 1.59462 3.79488 1.164 4.5495C0.7322 5.30262 0.432786 6.10965 0.276102 6.94273C0.117929 7.77476 0.0328146 8.61638 0.0215228 9.46004C0.00833918 9.84556 0.00694695 10.2324 0 10.6179V39.6817C0.00694695 40.0721 0.00833918 40.4504 0.0215228 40.8409C0.032818 41.6845 0.117932 42.5261 0.276102 43.3581C0.432353 44.1916 0.731785 44.9991 1.164 45.7525C1.59442 46.5047 2.15969 47.1902 2.83783 47.7824C3.50976 48.3822 4.28616 48.8826 5.13736 49.2645C5.98754 49.6471 6.89786 49.9145 7.83783 50.0576C8.77918 50.1945 9.73078 50.2688 10.6847 50.2799C11.1238 50.2885 11.5552 50.2934 11.9902 50.2934C12.5097 50.2959 13.0245 50.2959 13.5454 50.2959H156.462C156.973 50.2959 157.492 50.2959 158.002 50.2934C158.435 50.2934 158.879 50.2885 159.312 50.2799C160.264 50.2694 161.214 50.1951 162.153 50.0576C163.096 49.9135 164.01 49.6461 164.864 49.2645C165.715 48.8823 166.49 48.3819 167.162 47.7824C167.838 47.1879 168.404 46.5029 168.84 45.7525C169.269 44.9986 169.566 44.1912 169.72 43.3581C169.878 42.526 169.966 41.6846 169.983 40.8409C169.989 40.4504 169.989 40.0721 169.989 39.6817C170 39.2249 170 38.7706 170 38.3064V11.9907C170 11.5303 170 11.0735 169.989 10.6179C169.989 10.2324 169.989 9.84556 169.983 9.45999C169.966 8.61625 169.878 7.77482 169.72 6.94268C169.565 6.11008 169.269 5.30311 168.84 4.54945C167.963 3.0369 166.573 1.80569 164.864 1.02899C164.01 0.648314 163.096 0.382592 162.153 0.240606C161.214 0.10202 160.264 0.0277139 159.312 0.0183491C158.879 0.012213 158.435 0.00484465 158.002 0.00239272C157.492 -0.00012207 156.973 -0.00012207 156.462 -0.00012207V4.13912e-05Z" fill="#A6A6A6"/>
<path d="M11.8746 49.1995C11.441 49.1995 11.0179 49.1946 10.5877 49.186C9.6965 49.1757 8.80741 49.1072 7.9277 48.9809C7.10741 48.856 6.31277 48.6238 5.57 48.2918C4.83403 47.9626 4.16277 47.5309 3.58193 47.0133C2.99268 46.5018 2.50211 45.9085 2.12964 45.257C1.75308 44.6012 1.49247 43.8983 1.3569 43.1728C1.2105 42.3932 1.13129 41.6049 1.11996 40.8146C1.11093 40.5494 1.09912 39.6663 1.09912 39.6663V10.6136C1.09912 10.6136 1.1117 9.74409 1.12003 9.48862C1.13088 8.69967 1.20963 7.91259 1.35559 7.13419C1.49141 6.40666 1.75222 5.70174 2.12899 5.04384C2.50008 4.39276 2.98793 3.79904 3.57363 3.28569C4.15867 2.76746 4.83208 2.33355 5.5693 1.99977C6.31037 1.66886 7.1035 1.43826 7.92213 1.31568C8.80473 1.18811 9.69691 1.11914 10.5912 1.10935L11.8753 1.09399H158.125L159.424 1.10997C160.31 1.11927 161.195 1.18763 162.069 1.31445C162.896 1.43856 163.697 1.67078 164.447 2.00346C165.924 2.67611 167.126 3.74031 167.884 5.04691C168.254 5.70027 168.511 6.39944 168.645 7.12068C168.793 7.90547 168.876 8.69873 168.893 9.49415C168.897 9.85032 168.897 10.2329 168.897 10.6136C168.908 11.0853 168.908 11.5342 168.908 11.9867V38.3079C168.908 38.7648 168.908 39.2106 168.897 39.6601C168.897 40.0691 168.897 40.4438 168.891 40.8294C168.875 41.6106 168.793 42.3897 168.648 43.1604C168.515 43.8912 168.256 44.5996 167.88 45.2607C167.504 45.9052 167.017 46.4933 166.434 47.0035C165.853 47.5239 165.18 47.9581 164.443 48.2894C163.695 48.624 162.895 48.857 162.069 48.9809C161.189 49.1079 160.3 49.1764 159.409 49.186C158.992 49.1946 158.556 49.1995 158.132 49.1995L156.589 49.202L11.8746 49.1995Z" fill="black"/>
<path d="M41.3002 25.526C41.3137 24.4765 41.5929 23.4474 42.1117 22.5346C42.6306 21.6218 43.3722 20.8549 44.2677 20.3052C43.6988 19.494 42.9484 18.8264 42.0759 18.3554C41.2035 17.8844 40.2331 17.6231 39.2418 17.5921C37.1272 17.3705 35.0772 18.8556 33.9996 18.8556C32.9012 18.8556 31.2421 17.6141 29.4556 17.6508C28.3 17.6881 27.1738 18.0237 26.1867 18.6248C25.1995 19.2259 24.3852 20.0721 23.823 21.0809C21.3876 25.2911 23.2042 31.4789 25.5371 34.8821C26.7043 36.5486 28.0684 38.4101 29.8534 38.3441C31.6 38.2718 32.2524 37.232 34.3608 37.232C36.4496 37.232 37.0616 38.3441 38.8828 38.3022C40.757 38.2718 41.9379 36.6283 43.0641 34.946C43.9028 33.7586 44.5481 32.4462 44.9762 31.0575C43.8873 30.5976 42.9581 29.8279 42.3044 28.8442C41.6507 27.8605 41.3014 26.7065 41.3002 25.526Z" fill="white"/>
<path d="M37.8602 15.3539C38.8822 14.129 39.3856 12.5545 39.2637 10.9648C37.7024 11.1286 36.2603 11.8737 35.2245 13.0516C34.7181 13.6271 34.3303 14.2966 34.0832 15.0218C33.836 15.747 33.7345 16.5138 33.7843 17.2782C34.5652 17.2863 35.3378 17.1172 36.0438 16.7839C36.7498 16.4506 37.3709 15.9617 37.8602 15.3539Z" fill="white"/>
<path d="M63.3796 34.1253H57.419L55.9876 38.3457H53.4629L59.1087 22.7313H61.7317L67.3775 38.3457H64.8097L63.3796 34.1253ZM58.0363 32.1778H62.761L60.4319 25.3284H60.3667L58.0363 32.1778Z" fill="white"/>
<path d="M79.5705 32.6542C79.5705 36.1919 77.6742 38.4648 74.8126 38.4648C74.0877 38.5026 73.3668 38.3359 72.7323 37.9836C72.0979 37.6314 71.5757 37.1079 71.2254 36.473H71.1713V42.1117H68.8311V26.9615H71.0963V28.855H71.1393C71.5057 28.2232 72.0368 27.7024 72.676 27.348C73.3153 26.9936 74.0388 26.8189 74.7695 26.8424C77.6631 26.8424 79.5705 29.1264 79.5705 32.6542ZM77.1651 32.6542C77.1651 30.3494 75.9722 28.8341 74.1522 28.8341C72.3641 28.8341 71.1615 30.3813 71.1615 32.6542C71.1615 34.948 72.3641 36.4841 74.1522 36.4841C75.9722 36.4841 77.1651 34.9799 77.1651 32.6542Z" fill="white"/>
<path d="M92.1188 32.6542C92.1188 36.1919 90.2225 38.4647 87.3609 38.4647C86.636 38.5026 85.9151 38.3359 85.2807 37.9836C84.6463 37.6314 84.124 37.1079 83.7738 36.473H83.7196V42.1117H81.3794V26.9615H83.6446V28.855H83.6876C84.054 28.2232 84.5851 27.7024 85.2243 27.348C85.8636 26.9936 86.5871 26.8189 87.3178 26.8424C90.2115 26.8424 92.1188 29.1264 92.1188 32.6542ZM89.7134 32.6542C89.7134 30.3494 88.5206 28.8341 86.7005 28.8341C84.9125 28.8341 83.7098 30.3813 83.7098 32.6542C83.7098 34.948 84.9125 36.4841 86.7005 36.4841C88.5206 36.4841 89.7134 34.9799 89.7134 32.6542H89.7134Z" fill="white"/>
<path d="M100.412 33.9951C100.586 35.5435 102.092 36.5602 104.151 36.5602C106.123 36.5602 107.542 35.5435 107.542 34.1473C107.542 32.9353 106.686 32.2097 104.66 31.7123L102.633 31.2248C99.7617 30.5323 98.4286 29.1914 98.4286 27.0155C98.4286 24.3214 100.78 22.4709 104.119 22.4709C107.423 22.4709 109.688 24.3214 109.764 27.0155H107.402C107.261 25.4573 105.971 24.5167 104.085 24.5167C102.2 24.5167 100.91 25.4683 100.91 26.8534C100.91 27.9573 101.734 28.6069 103.75 29.1042L105.473 29.5266C108.681 30.2842 110.014 31.5711 110.014 33.855C110.014 36.7762 107.684 38.6059 103.977 38.6059C100.509 38.6059 98.1679 36.8192 98.0166 33.995L100.412 33.9951Z" fill="white"/>
<path d="M115.065 24.2675V26.9615H117.233V28.812H115.065V35.0879C115.065 36.0629 115.499 36.5172 116.452 36.5172C116.709 36.5128 116.966 36.4947 117.222 36.4632V38.3026C116.793 38.3826 116.358 38.4188 115.922 38.4107C113.614 38.4107 112.713 37.545 112.713 35.3372V28.812H111.056V26.9615H112.713V24.2675H115.065Z" fill="white"/>
<path d="M118.488 32.6542C118.488 29.0723 120.601 26.8215 123.895 26.8215C127.201 26.8215 129.304 29.0723 129.304 32.6542C129.304 36.2459 127.212 38.4868 123.895 38.4868C120.58 38.4868 118.488 36.2459 118.488 32.6542ZM126.919 32.6542C126.919 30.1971 125.792 28.7469 123.895 28.7469C121.999 28.7469 120.873 30.2082 120.873 32.6542C120.873 35.1211 121.999 36.5602 123.895 36.5602C125.792 36.5602 126.919 35.1211 126.919 32.6542H126.919Z" fill="white"/>
<path d="M131.233 26.9616H133.465V28.8992H133.52C133.671 28.294 134.026 27.7592 134.525 27.3847C135.024 27.0101 135.638 26.8186 136.262 26.8424C136.532 26.8415 136.801 26.8707 137.064 26.9296V29.1153C136.723 29.0114 136.368 28.9637 136.012 28.9741C135.672 28.9604 135.333 29.0202 135.019 29.1496C134.704 29.2789 134.421 29.4748 134.19 29.7236C133.958 29.9724 133.783 30.2684 133.677 30.5911C133.57 30.9138 133.535 31.2557 133.574 31.5933V38.3456H131.233L131.233 26.9616Z" fill="white"/>
<path d="M147.853 35.002C147.538 37.0686 145.523 38.4868 142.944 38.4868C139.627 38.4868 137.569 36.268 137.569 32.7082C137.569 29.1374 139.638 26.8215 142.846 26.8215C146 26.8215 147.984 28.9851 147.984 32.4368V33.2374H139.931V33.3787C139.894 33.7976 139.947 34.2197 140.085 34.6168C140.224 35.014 140.446 35.3771 140.736 35.682C141.026 35.987 141.378 36.2269 141.768 36.3857C142.158 36.5445 142.577 36.6187 142.998 36.6032C143.551 36.6549 144.106 36.527 144.581 36.2385C145.055 35.95 145.423 35.5163 145.631 35.002L147.853 35.002ZM139.942 31.6043H145.642C145.663 31.2276 145.606 30.8506 145.474 30.497C145.342 30.1434 145.139 29.8209 144.876 29.5496C144.614 29.2783 144.298 29.0641 143.948 28.9205C143.599 28.7768 143.223 28.7069 142.846 28.715C142.465 28.7127 142.087 28.7858 141.734 28.9301C141.382 29.0744 141.061 29.287 140.791 29.5556C140.521 29.8242 140.307 30.1436 140.161 30.4952C140.016 30.8468 139.941 31.2238 139.942 31.6043V31.6043Z" fill="white"/>
<path d="M57.7429 10.9784C58.2335 10.9432 58.7258 11.0172 59.1843 11.1951C59.6428 11.3729 60.0561 11.6501 60.3943 12.0068C60.7325 12.3634 60.9873 12.7905 61.1401 13.2574C61.293 13.7242 61.3402 14.2191 61.2784 14.7063C61.2784 17.1033 59.981 18.481 57.7429 18.481H55.0288V10.9784H57.7429ZM56.1958 17.42H57.6125C57.9631 17.4409 58.3139 17.3835 58.6395 17.252C58.9651 17.1205 59.2572 16.9181 59.4945 16.6596C59.7319 16.4011 59.9085 16.093 60.0116 15.7578C60.1147 15.4226 60.1416 15.0686 60.0904 14.7216C60.1379 14.3761 60.1083 14.0243 60.0036 13.6915C59.8989 13.3587 59.7218 13.0531 59.485 12.7967C59.2482 12.5403 58.9575 12.3394 58.6338 12.2083C58.31 12.0772 57.9613 12.0193 57.6125 12.0386H56.1958V17.42Z" fill="white"/>
<path d="M62.5966 15.6475C62.561 15.2754 62.6036 14.9 62.7218 14.5453C62.84 14.1906 63.0311 13.8645 63.2828 13.5879C63.5346 13.3113 63.8415 13.0903 64.1838 12.9391C64.5262 12.7878 64.8964 12.7097 65.2707 12.7097C65.6451 12.7097 66.0153 12.7878 66.3576 12.9391C66.6999 13.0903 67.0068 13.3113 67.2586 13.5879C67.5104 13.8645 67.7015 14.1906 67.8197 14.5453C67.9378 14.9 67.9805 15.2754 67.9448 15.6475C67.9811 16.0199 67.939 16.3959 67.8211 16.7511C67.7033 17.1064 67.5123 17.4331 67.2605 17.7102C67.0086 17.9874 66.7015 18.2088 66.3588 18.3604C66.0161 18.5119 65.6455 18.5902 65.2707 18.5902C64.8959 18.5902 64.5253 18.5119 64.1826 18.3604C63.8399 18.2088 63.5328 17.9874 63.281 17.7102C63.0291 17.4331 62.8381 17.1064 62.7203 16.7511C62.6024 16.3959 62.5603 16.0199 62.5966 15.6475ZM66.7937 15.6475C66.7937 14.4202 66.2416 13.7024 65.2726 13.7024C64.2998 13.7024 63.7526 14.4202 63.7526 15.6475C63.7526 16.8846 64.2999 17.5968 65.2726 17.5968C66.2416 17.5968 66.7938 16.8797 66.7938 15.6475H66.7937Z" fill="white"/>
<path d="M75.0541 18.4809H73.8933L72.7213 14.3109H72.6328L71.4657 18.4809H70.3159L68.7529 12.819H69.888L70.9038 17.1394H70.9874L72.1532 12.819H73.2267L74.3925 17.1394H74.4811L75.4919 12.819H76.611L75.0541 18.4809Z" fill="white"/>
<path d="M77.9253 12.819H79.0026V13.7184H79.0862C79.228 13.3954 79.4673 13.1246 79.7706 12.9437C80.0739 12.7629 80.4262 12.6811 80.7783 12.7097C81.0542 12.689 81.3312 12.7305 81.5889 12.8312C81.8465 12.9319 82.0782 13.0892 82.2667 13.2915C82.4552 13.4937 82.5957 13.7357 82.6778 13.9995C82.7599 14.2634 82.7815 14.5423 82.741 14.8156V18.4809H81.6219V15.0962C81.6219 14.1863 81.2259 13.7338 80.3983 13.7338C80.211 13.7251 80.024 13.7569 79.8501 13.8271C79.6763 13.8973 79.5197 14.0042 79.3911 14.1405C79.2625 14.2768 79.1649 14.4392 79.1051 14.6167C79.0452 14.7941 79.0245 14.9824 79.0444 15.1686V18.4809H77.9253L77.9253 12.819Z" fill="white"/>
<path d="M84.5244 10.6086H85.6435V18.4809H84.5244V10.6086Z" fill="white"/>
<path d="M87.1991 15.6475C87.1635 15.2753 87.2062 14.8999 87.3244 14.5452C87.4426 14.1905 87.6337 13.8644 87.8855 13.5878C88.1373 13.3112 88.4442 13.0902 88.7866 12.939C89.1289 12.7877 89.4992 12.7096 89.8735 12.7096C90.2479 12.7096 90.6181 12.7877 90.9605 12.939C91.3028 13.0902 91.6097 13.3112 91.8616 13.5878C92.1134 13.8644 92.3045 14.1905 92.4227 14.5452C92.5409 14.8999 92.5835 15.2753 92.5479 15.6475C92.5842 16.0199 92.542 16.3959 92.4241 16.7511C92.3062 17.1064 92.1152 17.4331 91.8634 17.7102C91.6115 17.9873 91.3043 18.2088 90.9617 18.3604C90.619 18.5119 90.2483 18.5902 89.8735 18.5902C89.4987 18.5902 89.1281 18.5119 88.7854 18.3604C88.4427 18.2088 88.1356 17.9873 87.8837 17.7102C87.6318 17.4331 87.4408 17.1064 87.3229 16.7511C87.205 16.3959 87.1629 16.0199 87.1991 15.6475ZM91.3962 15.6475C91.3962 14.4201 90.8441 13.7024 89.8751 13.7024C88.9023 13.7024 88.3551 14.4201 88.3551 15.6475C88.3551 16.8846 88.9024 17.5968 89.8751 17.5968C90.8441 17.5968 91.3963 16.8797 91.3963 15.6475H91.3962Z" fill="white"/>
<path d="M93.7261 16.8796C93.7261 15.8604 94.4861 15.2729 95.8351 15.1894L97.371 15.101V14.6123C97.371 14.0143 96.9751 13.6766 96.2102 13.6766C95.5854 13.6766 95.1526 13.9056 95.0284 14.3059H93.945C94.0593 13.3334 94.9755 12.7096 96.2618 12.7096C97.6834 12.7096 98.4852 13.4163 98.4852 14.6123V18.4808H97.4079V17.6852H97.3194C97.1397 17.9706 96.8873 18.2032 96.5881 18.3594C96.2888 18.5156 95.9535 18.5897 95.6162 18.5741C95.3781 18.5989 95.1376 18.5735 94.9099 18.4997C94.6823 18.4259 94.4727 18.3053 94.2946 18.1456C94.1165 17.986 93.9739 17.7908 93.876 17.5728C93.7781 17.3547 93.727 17.1186 93.7261 16.8796ZM97.371 16.3958V15.9225L95.9863 16.0109C95.2055 16.063 94.8513 16.3283 94.8513 16.8274C94.8513 17.337 95.294 17.6336 95.9028 17.6336C96.0811 17.6516 96.2613 17.6336 96.4326 17.5807C96.6038 17.5278 96.7627 17.441 96.8997 17.3255C97.0367 17.21 97.149 17.0682 97.23 16.9085C97.3109 16.7488 97.3589 16.5744 97.371 16.3958Z" fill="white"/>
<path d="M99.9556 15.6475C99.9556 13.8584 100.877 12.725 102.309 12.725C102.664 12.7087 103.015 12.7934 103.323 12.9693C103.631 13.1452 103.883 13.405 104.048 13.7183H104.132V10.6086H105.251V18.4809H104.179V17.5863H104.09C103.912 17.8975 103.651 18.1541 103.338 18.3282C103.024 18.5023 102.668 18.5874 102.309 18.5742C100.867 18.5742 99.9556 17.4408 99.9556 15.6475ZM101.112 15.6475C101.112 16.8484 101.678 17.571 102.627 17.571C103.57 17.571 104.153 16.8379 104.153 15.6524C104.153 14.4723 103.564 13.7288 102.627 13.7288C101.685 13.7288 101.112 14.4564 101.112 15.6475H101.112Z" fill="white"/>
<path d="M109.881 15.6475C109.845 15.2754 109.888 14.9 110.006 14.5453C110.124 14.1906 110.315 13.8645 110.567 13.5879C110.819 13.3113 111.126 13.0903 111.468 12.9391C111.81 12.7878 112.181 12.7097 112.555 12.7097C112.929 12.7097 113.299 12.7878 113.642 12.9391C113.984 13.0903 114.291 13.3113 114.543 13.5879C114.795 13.8645 114.986 14.1906 115.104 14.5453C115.222 14.9 115.265 15.2754 115.229 15.6475C115.265 16.0199 115.223 16.3959 115.105 16.7511C114.987 17.1064 114.796 17.4331 114.545 17.7102C114.293 17.9874 113.986 18.2088 113.643 18.3604C113.3 18.5119 112.93 18.5902 112.555 18.5902C112.18 18.5902 111.809 18.5119 111.467 18.3604C111.124 18.2088 110.817 17.9874 110.565 17.7102C110.313 17.4331 110.122 17.1064 110.004 16.7511C109.887 16.3959 109.844 16.0199 109.881 15.6475ZM114.078 15.6475C114.078 14.4202 113.526 13.7024 112.557 13.7024C111.584 13.7024 111.037 14.4202 111.037 15.6475C111.037 16.8846 111.584 17.5968 112.557 17.5968C113.526 17.5968 114.078 16.8797 114.078 15.6475Z" fill="white"/>
<path d="M116.73 12.819H117.808V13.7184H117.891C118.033 13.3954 118.272 13.1246 118.576 12.9437C118.879 12.7629 119.231 12.6811 119.583 12.7097C119.859 12.689 120.136 12.7305 120.394 12.8312C120.652 12.9319 120.883 13.0892 121.072 13.2915C121.26 13.4937 121.401 13.7357 121.483 13.9995C121.565 14.2634 121.587 14.5423 121.546 14.8156V18.4809H120.427V15.0962C120.427 14.1863 120.031 13.7338 119.203 13.7338C119.016 13.7251 118.829 13.7569 118.655 13.8271C118.481 13.8973 118.325 14.0042 118.196 14.1405C118.068 14.2768 117.97 14.4392 117.91 14.6167C117.85 14.7941 117.83 14.9824 117.85 15.1686V18.4809H116.73V12.819Z" fill="white"/>
<path d="M127.87 11.4093V12.8447H129.099V13.786H127.87V16.6974C127.87 17.2905 128.115 17.5502 128.672 17.5502C128.814 17.5497 128.957 17.5411 129.099 17.5244V18.4551C128.898 18.491 128.694 18.5101 128.49 18.5122C127.245 18.5122 126.75 18.0751 126.75 16.9835V13.7859H125.85V12.8447H126.75V11.4093H127.87Z" fill="white"/>
<path d="M130.626 10.6086H131.736V13.7288H131.824C131.973 13.4027 132.219 13.1304 132.528 12.9489C132.838 12.7674 133.196 12.6856 133.553 12.7145C133.828 12.6996 134.102 12.7454 134.357 12.8485C134.611 12.9517 134.84 13.1097 135.027 13.3113C135.213 13.5129 135.353 13.7532 135.436 14.0149C135.519 14.2766 135.543 14.5533 135.506 14.8253V18.4809H134.386V15.101C134.386 14.1966 133.964 13.7386 133.173 13.7386C132.981 13.7229 132.787 13.7493 132.606 13.816C132.425 13.8827 132.261 13.9881 132.125 14.1248C131.989 14.2615 131.885 14.4263 131.819 14.6075C131.754 14.7888 131.728 14.9821 131.746 15.1741V18.4809H130.627L130.626 10.6086Z" fill="white"/>
<path d="M142.032 16.952C141.88 17.4695 141.55 17.9171 141.101 18.2166C140.652 18.516 140.112 18.6482 139.575 18.5901C139.201 18.5999 138.83 18.5285 138.487 18.3807C138.144 18.2329 137.837 18.0124 137.588 17.7343C137.338 17.4562 137.153 17.1274 137.043 16.7705C136.934 16.4136 136.904 16.0373 136.955 15.6676C136.906 15.2969 136.936 14.9197 137.045 14.5618C137.154 14.2038 137.339 13.8734 137.587 13.5929C137.834 13.3124 138.14 13.0884 138.482 12.936C138.824 12.7836 139.195 12.7064 139.57 12.7096C141.148 12.7096 142.099 13.7859 142.099 15.5639V15.9538H138.095V16.0164C138.078 16.2242 138.104 16.4333 138.172 16.6304C138.24 16.8275 138.349 17.0082 138.491 17.1609C138.633 17.3136 138.806 17.435 138.998 17.5172C139.19 17.5995 139.397 17.6407 139.605 17.6384C139.873 17.6705 140.144 17.6224 140.385 17.5002C140.625 17.3779 140.823 17.1871 140.954 16.952L142.032 16.952ZM138.095 15.1274H140.959C140.973 14.9373 140.948 14.7465 140.883 14.567C140.819 14.3875 140.718 14.2235 140.587 14.0853C140.455 13.9472 140.296 13.8381 140.12 13.7649C139.944 13.6918 139.754 13.6562 139.564 13.6606C139.37 13.6582 139.178 13.6945 138.999 13.7673C138.819 13.8402 138.657 13.9481 138.52 14.0848C138.383 14.2215 138.275 14.3842 138.202 14.5632C138.129 14.7423 138.093 14.9341 138.095 15.1274H138.095Z" fill="white"/>
</g>
<defs>
<clipPath id="clip0">
<rect width="170" height="50.2959" fill="white"/>
</clipPath>
</defs>
</svg>
