<svg width="35" height="40" viewBox="0 0 35 40" fill="none" xmlns="http://www.w3.org/2000/svg">
<path d="M29.2007 18.0644C29.5846 19.885 29.42 21.7786 28.7278 23.5056C28.0356 25.2327 26.8468 26.7158 25.3118 27.7673C23.7767 28.8188 21.9644 29.3915 20.1039 29.413C18.2433 29.4345 16.4182 28.9039 14.8592 27.8882C13.3003 26.8725 12.0775 25.4173 11.3455 23.7067C10.6135 21.9961 10.4052 20.1068 10.7469 18.2778C11.0886 16.4488 11.9649 14.7622 13.2651 13.4312C14.5653 12.1003 16.231 11.1847 18.0515 10.8003C19.2605 10.5451 20.508 10.5305 21.7227 10.7574C22.9374 10.9843 24.0955 11.4483 25.1308 12.1229C26.1662 12.7974 27.0585 13.6693 27.7568 14.6888C28.4551 15.7082 28.9458 16.8553 29.2007 18.0644Z" fill="#FF4F00"/>
<path d="M8.7208 13.704C8.8807 14.4627 8.81207 15.2518 8.52359 15.9716C8.23512 16.6913 7.73974 17.3093 7.10008 17.7476C6.46042 18.1858 5.70519 18.4246 4.92985 18.4337C4.15452 18.4428 3.39388 18.2219 2.74409 17.7988C2.0943 17.3757 1.58453 16.7695 1.27921 16.0567C0.973885 15.344 0.886722 14.5567 1.02873 13.7945C1.17075 13.0322 1.53556 12.3291 2.07706 11.7741C2.61856 11.2192 3.31244 10.8372 4.07099 10.6765C4.57511 10.5697 5.09534 10.5633 5.60193 10.6576C6.10853 10.752 6.59155 10.9453 7.02339 11.2265C7.45523 11.5077 7.82742 11.8712 8.11867 12.2963C8.40992 12.7214 8.61453 13.1998 8.7208 13.704Z" fill="#FF4F00"/>
<path d="M32.461 5.64419C32.6209 6.40291 32.5523 7.19201 32.2638 7.91174C31.9754 8.63146 31.48 9.24951 30.8403 9.68776C30.2007 10.126 29.4454 10.3648 28.6701 10.3739C27.8948 10.383 27.1341 10.1621 26.4843 9.73899C25.8345 9.3159 25.3248 8.70967 25.0194 7.99693C24.7141 7.28418 24.627 6.49692 24.769 5.73464C24.911 4.97237 25.2758 4.26931 25.8173 3.71433C26.3588 3.15934 27.0527 2.77736 27.8112 2.61665C28.3153 2.50984 28.8356 2.50344 29.3422 2.59782C29.8488 2.6922 30.3318 2.88551 30.7636 3.16668C31.1955 3.44786 31.5677 3.81139 31.8589 4.2365C32.1502 4.66161 32.3548 5.13995 32.461 5.64419Z" fill="#FF4F00"/>
<path d="M23.399 3.11269C23.5589 3.87142 23.4903 4.66051 23.2018 5.38024C22.9133 6.09997 22.418 6.71802 21.7783 7.15627C21.1386 7.59452 20.3834 7.83329 19.6081 7.84241C18.8327 7.85153 18.0721 7.63058 17.4223 7.20749C16.7725 6.78441 16.2628 6.17818 15.9574 5.46543C15.6521 4.75269 15.5649 3.96542 15.707 3.20315C15.849 2.44088 16.2138 1.73781 16.7553 1.18283C17.2968 0.62785 17.9907 0.245862 18.7492 0.085152C19.2533 -0.0216536 19.7736 -0.0280498 20.2802 0.0663291C20.7868 0.160708 21.2698 0.354011 21.7016 0.635187C22.1335 0.916363 22.5056 1.2799 22.7969 1.70501C23.0881 2.13011 23.2928 2.60846 23.399 3.11269Z" fill="#FF4F00"/>
<path d="M14.4044 6.17129C14.5643 6.93001 14.4957 7.71911 14.2072 8.43884C13.9187 9.15857 13.4233 9.77661 12.7837 10.2149C12.144 10.6531 11.3888 10.8919 10.6134 10.901C9.83811 10.9101 9.07748 10.6892 8.42769 10.2661C7.7779 9.843 7.26812 9.23677 6.9628 8.52403C6.65748 7.81128 6.57032 7.02402 6.71233 6.26174C6.85434 5.49947 7.21915 4.79641 7.76065 4.24143C8.30215 3.68644 8.99603 3.30446 9.75458 3.14375C10.2587 3.03694 10.7789 3.03054 11.2855 3.12492C11.7921 3.2193 12.2751 3.4126 12.707 3.69378C13.1388 3.97496 13.511 4.33849 13.8023 4.7636C14.0935 5.18871 14.2981 5.66705 14.4044 6.17129Z" fill="#FF4F00"/>
<path d="M19.9942 32.1586C16.7714 32.1586 13.6806 30.8783 11.4018 28.5995C9.12292 26.3206 7.84268 23.2299 7.84268 20.0071H3.96313e-07C-0.000796696 24.0109 1.2008 27.9227 3.44912 31.2357C5.69743 34.5487 8.88884 37.1101 12.6099 38.5882C16.3309 40.0662 20.41 40.3928 24.3188 39.5255C28.2276 38.6582 31.7859 36.6371 34.5326 33.724L28.8495 28.3302C27.7147 29.5413 26.3431 30.5061 24.8197 31.1647C23.2963 31.8233 21.6538 32.1616 19.9942 32.1586Z" fill="white"/>
</svg>
