<svg width="32" height="32" viewBox="0 0 32 32" fill="none" xmlns="http://www.w3.org/2000/svg">
<path fill-rule="evenodd" clip-rule="evenodd" d="M12 6C12.5523 6 13 6.44772 13 7V25C13 25.5523 12.5523 26 12 26C11.4477 26 11 25.5523 11 25V7C11 6.44772 11.4477 6 12 6Z" fill="white"/>
<path fill-rule="evenodd" clip-rule="evenodd" d="M2.58579 6.58579C2.96086 6.21071 3.46957 6 4 6H28C28.5304 6 29.0391 6.21071 29.4142 6.58579C29.7893 6.96086 30 7.46957 30 8V11.101C30 11.1011 30 11.1012 30 11.1012C30 11.5622 29.8407 12.0091 29.549 12.3661C29.2572 12.7231 28.8509 12.9683 28.399 13.06L28.2001 12.08L28.4003 13.0598C27.7226 13.1982 27.1136 13.5665 26.6763 14.1022C26.2389 14.638 26 15.3084 26 16C26 16.6916 26.2389 17.362 26.6763 17.8978C27.1135 18.4334 27.7223 18.8016 28.3997 18.9401C28.8513 19.032 29.2573 19.277 29.549 19.6339C29.8407 19.9909 30 20.4378 30 20.8988C30 20.8988 30 20.8989 30 20.899V24C30 24.5304 29.7893 25.0391 29.4142 25.4142C29.0391 25.7893 28.5304 26 28 26H4C3.46957 26 2.96086 25.7893 2.58579 25.4142C2.21071 25.0391 2 24.5304 2 24L2 20.899C2 20.8989 2 20.8988 2 20.8988C1.99996 20.4378 2.1593 19.9909 2.45104 19.6339C2.74282 19.2769 3.14908 19.0317 3.60096 18.94L3.7999 19.92L3.59973 18.9402C4.27735 18.8018 4.88636 18.4336 5.32374 17.8978C5.76111 17.362 6 16.6916 6 16C6 15.3084 5.76111 14.638 5.32374 14.1022C4.88649 13.5666 4.27772 13.1984 3.60034 13.0599C3.14871 12.9681 2.74269 12.723 2.45104 12.3661C2.1593 12.0091 1.99996 11.5622 2 11.1012C2 11.1012 2 11.1011 2 11.101L2 8C2 7.46957 2.21071 6.96086 2.58579 6.58579ZM28 8L4 8V11.1002L4.00007 11.1002C5.12929 11.3309 6.14418 11.9446 6.87304 12.8374C7.6019 13.7303 8 14.8474 8 16C8 17.1526 7.6019 18.2697 6.87304 19.1626C6.14418 20.0554 5.12929 20.6691 4.00007 20.8998L4 20.8998V24H28V20.8998L27.9999 20.8998C26.8707 20.6691 25.8558 20.0554 25.127 19.1626C24.3981 18.2697 24 17.1526 24 16C24 14.8475 24.3981 13.7303 25.127 12.8374C25.8558 11.9446 26.8707 11.3309 27.9999 11.1002L28 11.1002V8Z" fill="white"/>
</svg>
