<svg width="32" height="32" viewBox="0 0 32 32" fill="none" xmlns="http://www.w3.org/2000/svg">
<path fill-rule="evenodd" clip-rule="evenodd" d="M13.4987 5.89317C13.127 6.21344 12.6833 6.54674 12.1712 6.75863C11.666 6.96764 11.1204 7.0386 10.64 7.06979C10.3263 7.09015 9.97605 7.09558 9.65665 7.10052C9.50403 7.10289 9.35846 7.10514 9.2273 7.10886C8.26491 7.13618 7.77493 7.2545 7.51472 7.51472C7.2545 7.77493 7.13618 8.26491 7.10887 9.22729C7.10514 9.35845 7.10289 9.50402 7.10053 9.65663C7.09558 9.97603 7.09016 10.3263 7.0698 10.64C7.03861 11.1204 6.96765 11.666 6.75863 12.1712C6.54675 12.6833 6.21345 13.127 5.89317 13.4987C5.67261 13.7547 5.41844 14.0198 5.18818 14.26C5.0929 14.3593 5.00172 14.4544 4.91871 14.5429C4.60952 14.8722 4.37079 15.1513 4.20832 15.4144C4.05001 15.6707 4 15.8552 4 16C4 16.1447 4.05001 16.3293 4.20833 16.5856C4.37079 16.8486 4.60952 17.1278 4.91871 17.4571C5.00172 17.5455 5.0929 17.6406 5.18817 17.74C5.41843 17.9801 5.6726 18.2453 5.89317 18.5013C6.21344 18.873 6.54674 19.3167 6.75863 19.8288C6.96764 20.334 7.0386 20.8796 7.06979 21.36C7.09015 21.6737 7.09558 22.024 7.10052 22.3433C7.10289 22.496 7.10514 22.6415 7.10886 22.7727C7.13618 23.7351 7.2545 24.2251 7.51472 24.4853C7.77493 24.7455 8.26491 24.8638 9.22729 24.8911C9.35845 24.8949 9.50401 24.8971 9.65663 24.8995C9.97603 24.9044 10.3263 24.9098 10.64 24.9302C11.1204 24.9614 11.666 25.0324 12.1712 25.2414C12.6833 25.4533 13.127 25.7866 13.4987 26.1068C13.7547 26.3274 14.0198 26.5816 14.26 26.8118C14.3593 26.9071 14.4545 26.9983 14.5429 27.0813C14.8722 27.3905 15.1513 27.6292 15.4144 27.7917C15.6707 27.95 15.8552 28 16 28C16.1447 28 16.3293 27.95 16.5856 27.7917C16.8486 27.6292 17.1278 27.3905 17.4571 27.0813C17.5455 26.9983 17.6406 26.9071 17.74 26.8118C17.9801 26.5816 18.2453 26.3274 18.5013 26.1068C18.873 25.7866 19.3167 25.4533 19.8288 25.2414C20.334 25.0324 20.8796 24.9614 21.36 24.9302C21.6737 24.9098 22.024 24.9044 22.3434 24.8995C22.496 24.8971 22.6415 24.8949 22.7727 24.8911C23.7351 24.8638 24.2251 24.7455 24.4853 24.4853C24.7455 24.2251 24.8638 23.7351 24.8911 22.7727C24.8949 22.6415 24.8971 22.496 24.8995 22.3434C24.9044 22.024 24.9098 21.6737 24.9302 21.36C24.9614 20.8796 25.0324 20.334 25.2414 19.8288C25.4533 19.3167 25.7866 18.873 26.1068 18.5013C26.3274 18.2453 26.5816 17.9802 26.8118 17.74C26.9071 17.6407 26.9983 17.5455 27.0813 17.4571C27.3905 17.1278 27.6292 16.8487 27.7917 16.5856C27.95 16.3293 28 16.1448 28 16C28 15.8553 27.95 15.6707 27.7917 15.4144C27.6292 15.1514 27.3905 14.8723 27.0813 14.5429C26.9983 14.4545 26.9071 14.3594 26.8118 14.26C26.5816 14.0199 26.3274 13.7547 26.1068 13.4987C25.7866 13.127 25.4533 12.6833 25.2414 12.1712C25.0324 11.666 24.9614 11.1204 24.9302 10.64C24.9098 10.3263 24.9044 9.97604 24.8995 9.65664C24.8971 9.50402 24.8949 9.35846 24.8911 9.2273C24.8638 8.26491 24.7455 7.77493 24.4853 7.51472C24.2251 7.2545 23.7351 7.13618 22.7727 7.10887C22.6415 7.10514 22.496 7.10289 22.3434 7.10053C22.024 7.09558 21.6737 7.09016 21.36 7.0698C20.8796 7.03861 20.334 6.96765 19.8288 6.75863L20.2112 5.8346L19.8288 6.75863C19.3167 6.54675 18.873 6.21345 18.5013 5.89317C18.2453 5.67261 17.9802 5.41844 17.74 5.18818C17.6407 5.0929 17.5456 5.00172 17.4571 4.91871C17.1278 4.60952 16.8487 4.37079 16.5856 4.20832C16.3293 4.05001 16.1448 4 16 4C15.8553 4 15.6707 4.05001 15.4144 4.20833C15.1514 4.37079 14.8723 4.60952 14.5429 4.91871C14.4545 5.00172 14.3594 5.09291 14.26 5.18819C14.0198 5.41844 13.7547 5.67261 13.4987 5.89317ZM14.3634 2.50675C14.814 2.22843 15.3632 2 16 2C16.6369 2 17.1861 2.22844 17.6367 2.50676C18.0805 2.78093 18.4814 3.13703 18.8261 3.46061C18.9491 3.57609 19.0629 3.68528 19.1717 3.78972C19.392 4.00106 19.592 4.19293 19.8068 4.37803C20.118 4.64615 20.372 4.81894 20.5935 4.91058C20.796 4.99436 21.0831 5.04761 21.4895 5.074C21.7576 5.09139 22.0153 5.09516 22.3001 5.09932C22.465 5.10173 22.6391 5.10427 22.8294 5.10967C23.7162 5.13484 25.0092 5.21022 25.8995 6.1005C26.7898 6.99079 26.8652 8.28378 26.8903 9.17056C26.8957 9.36091 26.8983 9.53494 26.9007 9.69991C26.9048 9.98468 26.9086 10.2424 26.926 10.5105C26.9524 10.917 27.0056 11.204 27.0894 11.4065L26.1654 11.7889L27.0894 11.4065C27.1811 11.628 27.3539 11.8821 27.622 12.1933C27.8071 12.4081 27.999 12.6081 28.2103 12.8283C28.3147 12.9372 28.4239 13.051 28.5394 13.174C28.863 13.5187 29.2191 13.9195 29.4932 14.3634C29.7716 14.814 30 15.3632 30 16C30 16.6369 29.7716 17.1861 29.4932 17.6367C29.2191 18.0805 28.863 18.4814 28.5394 18.8261C28.4239 18.949 28.3147 19.0628 28.2103 19.1717C27.999 19.392 27.8071 19.592 27.622 19.8068C27.3538 20.118 27.1811 20.372 27.0894 20.5935C27.0056 20.796 26.9524 21.0831 26.926 21.4895C26.9086 21.7576 26.9048 22.0153 26.9007 22.3C26.8983 22.465 26.8957 22.6391 26.8903 22.8294C26.8652 23.7162 26.7898 25.0092 25.8995 25.8995C25.0092 26.7898 23.7162 26.8652 22.8294 26.8903C22.6391 26.8957 22.4651 26.8983 22.3001 26.9007C22.0153 26.9048 21.7576 26.9086 21.4895 26.926C21.0831 26.9524 20.796 27.0056 20.5935 27.0894C20.372 27.1811 20.1179 27.3539 19.8067 27.622C19.5919 27.8071 19.3919 27.999 19.1717 28.2103C19.0628 28.3147 18.949 28.4239 18.826 28.5394C18.4813 28.863 18.0805 29.2191 17.6366 29.4932C17.186 29.7716 16.6368 30 16 30C15.3631 30 14.8139 29.7716 14.3633 29.4932C13.9195 29.2191 13.5186 28.863 13.1739 28.5394C13.0509 28.4239 12.9371 28.3147 12.8283 28.2103C12.608 27.9989 12.408 27.8071 12.1932 27.622C11.882 27.3538 11.628 27.1811 11.4065 27.0894C11.204 27.0056 10.9169 26.9524 10.5105 26.926C10.2424 26.9086 9.9847 26.9048 9.69995 26.9007C9.53497 26.8983 9.36092 26.8957 9.17056 26.8903C8.28378 26.8652 6.99079 26.7898 6.1005 25.8995C5.21022 25.0092 5.13484 23.7162 5.10967 22.8294C5.10426 22.6391 5.10172 22.465 5.09931 22.3001C5.09515 22.0153 5.09139 21.7576 5.07399 21.4895C5.0476 21.0831 4.99435 20.796 4.91057 20.5935C4.81892 20.372 4.64614 20.1179 4.37801 19.8067C4.19292 19.5919 4.00104 19.3919 3.78971 19.1717C3.68527 19.0628 3.57607 18.949 3.4606 18.826C3.13702 18.4813 2.78092 18.0805 2.50675 17.6366C2.22843 17.186 2 16.6368 2 16C2 15.3631 2.22844 14.8139 2.50676 14.3633C2.78093 13.9195 3.13703 13.5186 3.46061 13.1739C3.57609 13.0509 3.68528 12.9371 3.78972 12.8283C4.00106 12.608 4.19293 12.408 4.37803 12.1932C4.64615 11.882 4.81894 11.628 4.91057 11.4065C4.99436 11.204 5.04761 10.9169 5.074 10.5105C5.09139 10.2424 5.09516 9.98469 5.09932 9.69993C5.10173 9.53496 5.10427 9.36091 5.10967 9.17056C5.13484 8.28378 5.21022 6.99079 6.1005 6.1005C6.99079 5.21022 8.28378 5.13484 9.17056 5.10967C9.36092 5.10426 9.53496 5.10172 9.69994 5.09931C9.9847 5.09515 10.2424 5.09139 10.5105 5.07399C10.917 5.0476 11.204 4.99435 11.4065 4.91057L11.7889 5.8346L11.4065 4.91057C11.628 4.81892 11.8821 4.64614 12.1933 4.37801C12.4081 4.19292 12.6081 4.00104 12.8283 3.78971C12.9372 3.68527 13.051 3.57607 13.174 3.4606C13.5187 3.13702 13.9195 2.78092 14.3634 2.50675Z" fill="white"/>
<path d="M10.9683 16.2862L11.4821 17.1761L9.62443 18.2486L10.1794 19.2099L11.5694 18.4074L12.0681 19.2712L10.6782 20.0737L11.7432 21.9184L10.6325 22.5596L8 18L10.9683 16.2862Z" fill="white"/>
<path d="M16.5098 19.1663L14.5678 17.9926L14.3015 18.1464L15.2952 19.8676L14.1846 20.5088L11.5521 15.9492L13.4162 14.873C13.7756 14.6655 14.1171 14.552 14.4407 14.5326C14.7687 14.5107 15.0593 14.5739 15.3123 14.7222C15.5629 14.8662 15.7657 15.0724 15.9207 15.3409C16.0957 15.644 16.1653 15.9646 16.1296 16.3028C16.0983 16.6385 15.9446 16.9523 15.6687 17.2444L17.7634 18.4426L16.5098 19.1663ZM13.8477 17.3604L14.5362 16.9629C14.7397 16.8454 14.8625 16.7082 14.9046 16.5511C14.9511 16.3915 14.9218 16.2207 14.8168 16.0389C14.7168 15.8657 14.5861 15.7593 14.4246 15.7197C14.2675 15.6776 14.0872 15.7153 13.8837 15.8328L13.1952 16.2303L13.8477 17.3604Z" fill="white"/>
<path d="M17.4136 13.7515L17.9461 14.6738L19.4335 13.8151L19.9285 14.6725L18.4411 15.5312L19.0186 16.5315L20.7008 15.5602L21.2146 16.4501L18.4217 18.0626L15.7892 13.5029L18.5821 11.8904L19.0958 12.7803L17.4136 13.7515Z" fill="white"/>
<path d="M20.9276 11.7227L21.4601 12.645L22.9475 11.7863L23.4425 12.6436L21.9551 13.5024L22.5326 14.5027L24.2148 13.5314L24.7286 14.4212L21.9357 16.0337L19.3032 11.4741L22.0961 9.86162L22.6098 10.7515L20.9276 11.7227Z" fill="white"/>
</svg>
