<svg width="170" height="50" viewBox="0 0 170 50" fill="none" xmlns="http://www.w3.org/2000/svg">
<path d="M163.704 0H6.2963C2.81895 0 0 2.79821 0 6.24997V43.7498C0 47.2015 2.81895 49.9998 6.2963 49.9998H163.704C167.181 49.9998 170 47.2015 170 43.7498V6.24997C170 2.79821 167.181 0 163.704 0Z" fill="black"/>
<path d="M163.704 0.999989C165.106 1.0016 166.45 1.55527 167.442 2.53954C168.433 3.52381 168.991 4.85829 168.992 6.25021V43.75C168.991 45.1419 168.433 46.4764 167.442 47.4607C166.45 48.4449 165.106 48.9986 163.704 49.0003H6.2963C4.89405 48.9986 3.5497 48.445 2.55818 47.4607C1.56667 46.4764 1.00896 45.142 1.00741 43.75V6.25021C1.00893 4.85828 1.56664 3.52378 2.55816 2.53951C3.54968 1.55523 4.89404 1.00157 6.2963 0.999989H163.704ZM163.704 0.000244141H6.2963C4.62792 0.00509174 3.02926 0.665125 1.84954 1.83617C0.66981 3.00722 0.00488353 4.59411 0 6.25021L0 43.75C0.00488353 45.4061 0.66981 46.993 1.84954 48.1641C3.02926 49.3351 4.62792 49.9951 6.2963 50H163.704C165.372 49.9951 166.971 49.3351 168.15 48.1641C169.33 46.993 169.995 45.4061 170 43.75V6.25021C169.995 4.59411 169.33 3.00722 168.15 1.83617C166.971 0.665125 165.372 0.00509174 163.704 0.000244141Z" fill="#A6A6A6"/>
<path d="M59.7118 12.804C59.7347 13.2627 59.6633 13.7212 59.502 14.1516C59.3407 14.582 59.0928 14.9754 58.7734 15.3076C58.4155 15.6761 57.9833 15.9654 57.505 16.1566C57.0267 16.3478 56.5132 16.4366 55.9979 16.4173C55.4794 16.4219 54.9651 16.3235 54.4854 16.1281C54.0057 15.9326 53.5702 15.6439 53.2045 15.2789C52.8388 14.914 52.5503 14.4801 52.3559 14.0029C52.1616 13.5257 52.0652 13.0147 52.0727 12.5C52.0653 11.9853 52.1617 11.4744 52.356 10.9971C52.5504 10.5199 52.8389 10.0861 53.2046 9.72106C53.5703 9.35608 54.0058 9.06731 54.4854 8.87173C54.9651 8.67615 55.4793 8.57771 55.9979 8.58218C56.531 8.58058 57.0589 8.68757 57.5487 8.89655C58.0036 9.0796 58.4085 9.36673 58.7305 9.73455L58.0664 10.3943C57.8133 10.0986 57.4951 9.86459 57.1365 9.7103C56.7779 9.55601 56.3883 9.48557 55.9979 9.50442C55.6049 9.5024 55.2156 9.57914 54.8531 9.73003C54.4907 9.88091 54.1627 10.1029 53.8888 10.3826C53.6148 10.6623 53.4006 10.994 53.2588 11.3578C53.1171 11.7216 53.0507 12.1101 53.0638 12.5C53.0545 13.084 53.22 13.6576 53.5395 14.1481C53.8589 14.6386 54.318 15.0238 54.8583 15.255C55.3986 15.4862 55.996 15.5529 56.5746 15.4467C57.1531 15.3404 57.6869 15.066 58.1082 14.6583C58.4959 14.2436 58.7206 13.7044 58.7414 13.139H55.9979V12.2382H59.6589C59.6936 12.4248 59.7113 12.6142 59.7118 12.804Z" fill="white" stroke="white" stroke-width="0.2" stroke-miterlimit="10"/>
<path d="M65.516 9.67174H62.0752V12.0496H65.1779V12.9506H62.0752V15.3285H65.516V16.2501H61.105V8.75012H65.516V9.67174Z" fill="white" stroke="white" stroke-width="0.2" stroke-miterlimit="10"/>
<path d="M69.6101 16.2501H68.6386V9.67174H66.5283V8.75012H71.7204V9.67174H69.6101V16.2501Z" fill="white" stroke="white" stroke-width="0.2" stroke-miterlimit="10"/>
<path d="M75.4771 16.2501V8.75012H76.4473V16.2501H75.4771Z" fill="white" stroke="white" stroke-width="0.2" stroke-miterlimit="10"/>
<path d="M80.754 16.2501H79.7825V9.67174H77.6724V8.75012H82.8643V9.67174H80.754V16.2501Z" fill="white" stroke="white" stroke-width="0.2" stroke-miterlimit="10"/>
<path d="M92.693 15.2809C91.9575 16.0087 90.9614 16.4174 89.923 16.4174C88.8845 16.4174 87.8884 16.0087 87.153 15.2809C86.7892 14.9151 86.5032 14.4804 86.312 14.0027C86.1208 13.525 86.0283 13.014 86.0401 12.5001C86.0283 11.9862 86.1208 11.4753 86.312 10.9975C86.5032 10.5198 86.7892 10.0852 87.153 9.71939C87.5165 9.35848 87.9481 9.07227 88.4232 8.87715C88.8982 8.68203 89.4074 8.58182 89.9215 8.58228C90.4357 8.58273 90.9447 8.68383 91.4194 8.87979C91.8941 9.07575 92.3252 9.36271 92.6881 9.72427C93.0521 10.0891 93.3387 10.5228 93.5307 10.9996C93.7227 11.4765 93.8163 11.9867 93.8059 12.5001C93.8173 13.014 93.7247 13.5249 93.5335 14.0025C93.3424 14.4802 93.0565 14.9149 92.693 15.2809ZM87.8699 14.6529C88.4145 15.1926 89.1527 15.4958 89.9223 15.4958C90.692 15.4958 91.4301 15.1926 91.9748 14.6529C92.2541 14.369 92.4725 14.0319 92.6169 13.6619C92.7613 13.2919 92.8286 12.8967 92.8147 12.5001C92.8286 12.1036 92.7613 11.7084 92.6169 11.3384C92.4725 10.9684 92.2541 10.6312 91.9748 10.3474C91.4301 9.80765 90.692 9.50451 89.9223 9.50451C89.1527 9.50451 88.4145 9.80765 87.8699 10.3474C87.591 10.6315 87.3729 10.9686 87.2287 11.3386C87.0846 11.7086 87.0174 12.1037 87.0312 12.5001C87.0174 12.8966 87.0846 13.2917 87.2287 13.6616C87.3729 14.0316 87.591 14.3688 87.8699 14.6529Z" fill="white" stroke="white" stroke-width="0.2" stroke-miterlimit="10"/>
<path d="M95.1689 16.2501V8.75012H96.3508L100.023 14.5845H100.065L100.023 13.1391V8.75012H100.994V16.2501H99.9809L96.1392 10.1331H96.0974L96.1392 11.5785V16.2501H95.1689Z" fill="white" stroke="white" stroke-width="0.2" stroke-miterlimit="10"/>
<path d="M85.8005 27.1895C84.7421 27.1935 83.7085 27.5087 82.8305 28.0953C81.9524 28.6819 81.2691 29.5136 80.8668 30.4854C80.4645 31.4572 80.3614 32.5256 80.5703 33.5555C80.7793 34.5855 81.291 35.5309 82.0408 36.2724C82.7907 37.0139 83.745 37.5182 84.7834 37.7217C85.8218 37.9252 86.8976 37.8188 87.8751 37.4158C88.8526 37.0128 89.6878 36.3313 90.2754 35.4575C90.863 34.5836 91.1766 33.5565 91.1766 32.5059C91.187 31.8032 91.0549 31.1056 90.7882 30.4545C90.5214 29.8035 90.1255 29.2124 89.6239 28.7164C89.1223 28.2204 88.5253 27.8297 87.8685 27.5673C87.2116 27.305 86.5084 27.1765 85.8005 27.1895ZM85.8005 35.728C85.1487 35.7741 84.4979 35.6244 83.933 35.2983C83.3681 34.9722 82.9152 34.4848 82.6333 33.8996C82.3514 33.3144 82.2535 32.6585 82.3523 32.0173C82.4512 31.3761 82.7422 30.7793 83.1875 30.3046C83.6329 29.8299 84.2119 29.4993 84.8492 29.3558C85.4865 29.2123 86.1525 29.2626 86.7606 29.5001C87.3687 29.7376 87.8907 30.1514 88.2585 30.6875C88.6264 31.2236 88.8232 31.8572 88.8232 32.5059C88.843 32.9157 88.78 33.3253 88.6379 33.7105C88.4958 34.0958 88.2775 34.4489 87.9958 34.7492C87.7141 35.0494 87.3748 35.2907 86.9978 35.4588C86.6208 35.6269 86.2137 35.7184 85.8005 35.728ZM74.0725 27.1895C73.0141 27.1935 71.9805 27.5087 71.1024 28.0953C70.2243 28.6818 69.541 29.5135 69.1387 30.4853C68.7364 31.4571 68.6333 32.5255 68.8422 33.5554C69.0511 34.5854 69.5628 35.5308 70.3127 36.2723C71.0625 37.0139 72.0169 37.5182 73.0552 37.7217C74.0936 37.9252 75.1695 37.8188 76.147 37.4158C77.1244 37.0128 77.9597 36.3313 78.5473 35.4575C79.1349 34.5836 79.4485 33.5565 79.4485 32.5059C79.4589 31.8032 79.3268 31.1056 79.0601 30.4546C78.7933 29.8036 78.3974 29.2125 77.8958 28.7165C77.3942 28.2205 76.7973 27.8297 76.1405 27.5674C75.4836 27.3051 74.7804 27.1766 74.0725 27.1895ZM74.0725 35.728C73.4207 35.7741 72.7699 35.6244 72.2051 35.2983C71.6402 34.9722 71.1873 34.4848 70.9053 33.8996C70.6234 33.3144 70.5255 32.6585 70.6243 32.0173C70.7232 31.3761 71.0142 30.7793 71.4596 30.3046C71.9049 29.8299 72.4839 29.4993 73.1212 29.3558C73.7585 29.2123 74.4245 29.2626 75.0326 29.5001C75.6407 29.7376 76.1627 30.1514 76.5306 30.6875C76.8984 31.2236 77.0952 31.8572 77.0952 32.5059C77.115 32.9157 77.052 33.3253 76.9099 33.7105C76.7678 34.0958 76.5495 34.449 76.2678 34.7492C75.9862 35.0495 75.6468 35.2907 75.2698 35.4588C74.8928 35.6269 74.4857 35.7184 74.0725 35.728ZM60.1214 28.8208V31.0761H65.5585C65.4801 32.134 65.044 33.1346 64.3209 33.9156C63.776 34.4669 63.1208 34.8987 62.3975 35.1831C61.6741 35.4675 60.8988 35.5983 60.1214 35.5669C58.5322 35.5455 57.0154 34.9039 55.8992 33.7808C54.7829 32.6577 54.1571 31.1434 54.1571 29.5658C54.1571 27.9881 54.7829 26.4739 55.8992 25.3508C57.0154 24.2277 58.5322 23.586 60.1214 23.5647C61.6479 23.5449 63.1206 24.1238 64.2195 25.1757L65.8222 23.5848C65.0724 22.848 64.1819 22.2671 63.203 21.8764C62.2241 21.4856 61.1764 21.2928 60.1214 21.3092C59.0189 21.2933 57.9242 21.4951 56.901 21.9028C55.8778 22.3106 54.9464 22.9163 54.1611 23.6845C53.3758 24.4528 52.7522 25.3684 52.3265 26.378C51.9008 27.3877 51.6816 28.4713 51.6816 29.5658C51.6816 30.6603 51.9008 31.7439 52.3265 32.7535C52.7522 33.7632 53.3758 34.6788 54.1611 35.447C54.9464 36.2153 55.8778 36.8209 56.901 37.2287C57.9242 37.6365 59.0189 37.8383 60.1214 37.8224C61.1986 37.8667 62.2731 37.6832 63.2734 37.2839C64.2737 36.8846 65.1771 36.2788 65.9236 35.5065C67.2488 34.0706 67.9552 32.1768 67.8915 30.2304C67.8967 29.7577 67.8559 29.2857 67.7696 28.8208H60.1214ZM117.176 30.5727C116.854 29.6097 116.242 28.7684 115.421 28.1632C114.601 27.5579 113.613 27.218 112.591 27.1895C111.903 27.1938 111.223 27.3365 110.592 27.609C109.961 27.8816 109.392 28.2783 108.92 28.7752C108.448 29.2722 108.082 29.859 107.845 30.5002C107.608 31.1414 107.504 31.8237 107.54 32.5059C107.524 33.2049 107.651 33.8998 107.912 34.5491C108.173 35.1984 108.564 35.7888 109.06 36.2851C109.556 36.7813 110.148 37.1732 110.8 37.4374C111.452 37.7015 112.151 37.8324 112.855 37.8224C113.737 37.8272 114.607 37.6145 115.386 37.2032C116.165 36.792 116.829 36.1951 117.318 35.4663L115.492 34.258C115.219 34.7089 114.832 35.0815 114.37 35.3392C113.907 35.5969 113.385 35.7309 112.855 35.728C112.31 35.7487 111.77 35.6062 111.307 35.3189C110.844 35.0317 110.479 34.6129 110.258 34.117L117.42 31.1769L117.176 30.5727ZM109.873 32.3449C109.848 31.9579 109.901 31.5699 110.028 31.2034C110.156 30.837 110.356 30.4995 110.617 30.2107C110.877 29.9219 111.193 29.6877 111.546 29.5216C111.899 29.3556 112.282 29.2611 112.672 29.2437C113.079 29.2171 113.484 29.3099 113.838 29.5105C114.191 29.711 114.477 30.0104 114.661 30.3714L109.873 32.3449ZM104.05 37.5001H106.404V21.8732H104.05V37.5001ZM100.196 28.3777H100.115C99.7569 27.9918 99.3203 27.6862 98.834 27.4813C98.3477 27.2764 97.8229 27.1769 97.2947 27.1895C95.9137 27.2479 94.6088 27.8335 93.6524 28.8241C92.6959 29.8148 92.162 31.1339 92.162 32.506C92.162 33.8781 92.6959 35.1971 93.6524 36.1878C94.6088 37.1784 95.9137 37.764 97.2947 37.8224C97.825 37.8364 98.3519 37.7355 98.8389 37.5269C99.3259 37.3182 99.7613 37.0067 100.115 36.6141H100.196V37.3794C100.196 39.4134 99.1004 40.5007 97.3353 40.5007C96.747 40.4867 96.1763 40.2993 95.6958 39.9621C95.2153 39.625 94.8468 39.1535 94.6372 38.6077L92.5881 39.4536C92.9743 40.3869 93.6325 41.1846 94.4782 41.7442C95.324 42.3039 96.3188 42.6002 97.3353 42.5951C100.094 42.5951 102.427 40.9841 102.427 37.0571V27.5117H100.196V28.3777ZM97.4977 35.728C96.6843 35.6595 95.9265 35.2904 95.3742 34.6937C94.8219 34.097 94.5154 33.3163 94.5154 32.506C94.5154 31.6956 94.8219 30.9149 95.3742 30.3182C95.9265 29.7215 96.6843 29.3524 97.4977 29.2839C97.9024 29.3035 98.299 29.4038 98.6637 29.5788C99.0285 29.7538 99.3541 29.9999 99.621 30.3024C99.888 30.605 100.091 30.9578 100.217 31.3398C100.344 31.7218 100.392 32.1252 100.358 32.526C100.39 32.9243 100.34 33.3248 100.212 33.7036C100.084 34.0825 99.8808 34.4318 99.6138 34.7307C99.3467 35.0296 99.0217 35.272 98.6581 35.4434C98.2945 35.6147 97.8999 35.7115 97.4977 35.728ZM128.2 21.8734H122.569V37.5001H124.919V31.5796H128.2C128.864 31.6158 129.529 31.5171 130.154 31.2895C130.779 31.062 131.351 30.7104 131.834 30.2562C132.317 29.802 132.702 29.2547 132.965 28.6478C133.228 28.041 133.364 27.3872 133.364 26.7265C133.364 26.0659 133.228 25.4121 132.965 24.8052C132.702 24.1984 132.317 23.6511 131.834 23.1969C131.351 22.7427 130.779 22.3911 130.154 22.1635C129.529 21.936 128.864 21.8373 128.2 21.8734ZM128.26 29.4049H124.919V24.0483H128.26C128.619 24.0409 128.976 24.1047 129.31 24.236C129.644 24.3673 129.948 24.5634 130.205 24.8128C130.461 25.0623 130.665 25.36 130.804 25.6886C130.943 26.0173 131.015 26.3701 131.015 26.7266C131.015 27.0831 130.943 27.436 130.804 27.7646C130.665 28.0932 130.461 28.3909 130.205 28.6404C129.948 28.8898 129.644 29.0859 129.31 29.2172C128.976 29.3485 128.619 29.4123 128.26 29.4049ZM142.782 27.1608C141.924 27.1111 141.071 27.311 140.326 27.736C139.581 28.161 138.978 28.7925 138.589 29.5532L140.675 30.4177C140.882 30.0401 141.196 29.7306 141.577 29.5271C141.958 29.3236 142.391 29.2348 142.822 29.2717C143.418 29.2139 144.013 29.3931 144.476 29.7699C144.939 30.1468 145.233 30.6905 145.293 31.282V31.4429C144.539 31.045 143.697 30.8378 142.843 30.8398C140.594 30.8398 138.306 32.0661 138.306 34.358C138.328 34.841 138.447 35.3147 138.657 35.7511C138.867 36.1874 139.163 36.5775 139.527 36.8981C139.892 37.2188 140.318 37.4634 140.779 37.6176C141.241 37.7718 141.729 37.8324 142.215 37.7957C142.806 37.8303 143.396 37.7068 143.924 37.4381C144.451 37.1694 144.896 36.7653 145.212 36.2679H145.293V37.4741H147.561V31.4831C147.561 28.7088 145.475 27.1608 142.782 27.1608ZM142.498 35.725C141.729 35.725 140.655 35.3431 140.655 34.3981C140.655 33.192 141.992 32.7295 143.146 32.7295C143.896 32.7097 144.638 32.8902 145.293 33.2523C145.207 33.9301 144.876 34.5539 144.362 35.0085C143.849 35.463 143.186 35.7176 142.498 35.725ZM155.825 27.5025L153.131 34.2775H153.05L150.255 27.5025H147.724L151.916 36.9715L149.526 42.2387H151.977L158.437 27.5025H155.825ZM134.66 37.5001H137.01V21.8734H134.66V37.5001Z" fill="white"/>
<path d="M13.1406 9.42254C12.7277 9.91262 12.5192 10.5409 12.5578 11.1787V38.8236C12.519 39.4614 12.7276 40.0897 13.1406 40.5798L13.2338 40.6699L28.8347 25.1838V24.8185L13.2338 9.33179L13.1406 9.42254Z" fill="url(#paint0_linear)"/>
<path d="M34.0349 30.3481L28.835 25.1839V24.8185L34.0362 19.6555L34.1534 19.7219L40.3147 23.197C42.0747 24.1895 42.0747 25.8135 40.3147 26.8066L34.1534 30.2817L34.0349 30.3481Z" fill="url(#paint1_linear)"/>
<path d="M34.1533 30.2811L28.8348 25.0012L13.1406 40.5798C13.4992 40.8937 13.9572 41.0732 14.4351 41.0873C14.913 41.1013 15.3808 40.9489 15.7575 40.6565L34.1533 30.2811Z" fill="url(#paint2_linear)"/>
<path d="M34.1533 19.7213L15.7575 9.34582C15.3808 9.05344 14.913 8.90105 14.4351 8.91507C13.9572 8.92909 13.4992 9.10862 13.1406 9.42257L28.8348 25.0012L34.1533 19.7213Z" fill="url(#paint3_linear)"/>
<path opacity="0.2" d="M34.036 30.1648L15.7575 40.4739C15.3953 40.7475 14.9534 40.8968 14.4982 40.8992C14.0431 40.9017 13.5995 40.757 13.2344 40.4872L13.1406 40.5804L13.2338 40.6705L13.2344 40.6699C13.5994 40.9398 14.043 41.0845 14.4982 41.0821C14.9534 41.0797 15.3954 40.9303 15.7575 40.6565L34.1533 30.281L34.036 30.1648Z" fill="black"/>
<path opacity="0.12" d="M13.1406 40.3978C12.7277 39.9077 12.5192 39.2795 12.5578 38.6417V38.8243C12.5191 39.4621 12.7276 40.0904 13.1406 40.5805L13.2344 40.4873L13.1406 40.3978Z" fill="black"/>
<path opacity="0.12" d="M40.3147 26.6233L34.0361 30.1648L34.1534 30.2811L40.3147 26.806C40.6771 26.6498 40.9907 26.4001 41.2229 26.0828C41.4551 25.7654 41.5973 25.3921 41.6348 25.0017C41.5569 25.3553 41.397 25.6859 41.1678 25.9674C40.9387 26.2489 40.6466 26.4735 40.3147 26.6233Z" fill="black"/>
<path opacity="0.25" d="M15.7578 9.52905L40.3148 23.379C40.6468 23.5288 40.939 23.7534 41.1682 24.0351C41.3974 24.3167 41.5572 24.6475 41.6349 25.0012C41.5977 24.6107 41.4556 24.2371 41.2234 23.9197C40.9912 23.6022 40.6774 23.3524 40.3148 23.1964L15.7578 9.34643C13.9978 8.35381 12.5581 9.17831 12.5581 11.1793V11.3619C12.5581 9.36105 13.9978 8.53656 15.7578 9.52905Z" fill="white"/>
<defs>
<linearGradient id="paint0_linear" x1="27.4512" y1="10.8872" x2="6.4739" y2="32.02" gradientUnits="userSpaceOnUse">
<stop stop-color="#00A0FF"/>
<stop offset="0.00657" stop-color="#00A1FF"/>
<stop offset="0.2601" stop-color="#00BEFF"/>
<stop offset="0.5122" stop-color="#00D2FF"/>
<stop offset="0.7604" stop-color="#00DFFF"/>
<stop offset="1" stop-color="#00E3FF"/>
</linearGradient>
<linearGradient id="paint1_linear" x1="42.6062" y1="25.0018" x2="12.136" y2="25.0018" gradientUnits="userSpaceOnUse">
<stop stop-color="#FFE000"/>
<stop offset="0.4087" stop-color="#FFBD00"/>
<stop offset="0.7754" stop-color="#FFA500"/>
<stop offset="1" stop-color="#FF9C00"/>
</linearGradient>
<linearGradient id="paint2_linear" x1="31.2633" y1="27.8701" x2="2.81639" y2="56.5279" gradientUnits="userSpaceOnUse">
<stop stop-color="#FF3A44"/>
<stop offset="1" stop-color="#C31162"/>
</linearGradient>
<linearGradient id="paint3_linear" x1="9.18898" y1="0.220341" x2="21.8917" y2="13.0172" gradientUnits="userSpaceOnUse">
<stop stop-color="#32A071"/>
<stop offset="0.0685" stop-color="#2DA771"/>
<stop offset="0.4762" stop-color="#15CF74"/>
<stop offset="0.8009" stop-color="#06E775"/>
<stop offset="1" stop-color="#00F076"/>
</linearGradient>
</defs>
</svg>
