<svg width="18" height="18" viewBox="0 0 18 18" fill="none" xmlns="http://www.w3.org/2000/svg">
<path d="M12.3751 0H5.62488C4.13315 0.000260133 2.70259 0.592963 1.64778 1.64778C0.592963 2.70259 0.000260133 4.13315 0 5.62488L0 12.3751C0.000260133 13.8669 0.592963 15.2974 1.64778 16.3522C2.70259 17.407 4.13315 17.9997 5.62488 18H12.3751C13.8669 17.9997 15.2974 17.407 16.3522 16.3522C17.407 15.2974 17.9997 13.8669 18 12.3751V5.62488C17.9997 4.13315 17.407 2.70259 16.3522 1.64778C15.2974 0.592963 13.8669 0.000260133 12.3751 0V0ZM16.3124 12.3761C16.3111 13.4199 15.8959 14.4207 15.1578 15.1588C14.4197 15.8969 13.419 16.3121 12.3751 16.3134H5.62488C4.58103 16.3121 3.58032 15.8969 2.84221 15.1588C2.1041 14.4207 1.68886 13.4199 1.68756 12.3761V5.62488C1.68886 4.58103 2.1041 3.58032 2.84221 2.84221C3.58032 2.1041 4.58103 1.68886 5.62488 1.68756H12.3751C13.419 1.68886 14.4197 2.1041 15.1578 2.84221C15.8959 3.58032 16.3111 4.58103 16.3124 5.62488V12.3761Z" fill="black"/>
<path d="M9.00002 4.50098C8.1099 4.50098 7.23978 4.76493 6.49967 5.25945C5.75957 5.75397 5.18273 6.45685 4.8421 7.2792C4.50147 8.10156 4.41234 9.00644 4.58599 9.87945C4.75964 10.7525 5.18828 11.5544 5.81768 12.1838C6.44709 12.8132 7.249 13.2418 8.12201 13.4155C8.99502 13.5891 9.89991 13.5 10.7223 13.1594C11.5446 12.8187 12.2475 12.2419 12.742 11.5018C13.2366 10.7617 13.5005 9.89157 13.5005 9.00146C13.5005 7.80786 13.0264 6.66314 12.1823 5.81914C11.3383 4.97514 10.1936 4.50098 9.00002 4.50098ZM9.00002 11.8134C8.44367 11.8134 7.89982 11.6484 7.43723 11.3393C6.97465 11.0302 6.6141 10.5909 6.40119 10.0769C6.18829 9.56294 6.13259 8.99735 6.24112 8.4517C6.34966 7.90604 6.61757 7.40484 7.01096 7.01144C7.40436 6.61805 7.90558 6.35014 8.45124 6.24161C8.99689 6.13307 9.56248 6.18877 10.0765 6.40168C10.5905 6.61458 11.0298 6.97512 11.3389 7.4377C11.648 7.90028 11.8129 8.44413 11.8129 9.00047C11.8119 9.74619 11.5152 10.4611 10.9879 10.9884C10.4606 11.5157 9.74573 11.8124 9.00002 11.8134Z" fill="black"/>
<path d="M13.8378 4.76219C14.1688 4.76219 14.4372 4.49379 14.4372 4.16271C14.4372 3.83163 14.1688 3.56323 13.8378 3.56323C13.5067 3.56323 13.2383 3.83163 13.2383 4.16271C13.2383 4.49379 13.5067 4.76219 13.8378 4.76219Z" fill="black"/>
</svg>
