<svg width="128" height="40" viewBox="0 0 128 40" fill="none" xmlns="http://www.w3.org/2000/svg">
<g clip-path="url(#clip0)">
<path d="M39.0024 19.8036C39.0024 17.2196 40.3098 15.7571 42.284 15.7571C42.8935 15.7145 43.4999 15.8749 44.0085 16.2134C44.5171 16.5519 44.8993 17.0493 45.0954 17.6279H47.7362C47.0695 15.1318 45.1832 13.6899 42.284 13.6899C38.8938 13.6899 36.4907 16.0982 36.4907 19.7984C36.4907 23.4987 38.8938 25.9276 42.284 25.9276C45.1832 25.9276 47.0695 24.3152 47.7362 21.9896H45.1005C44.914 22.5743 44.5339 23.0781 44.023 23.4181C43.512 23.7581 42.9006 23.9141 42.2892 23.8604C40.315 23.8604 39.0075 22.3979 39.0075 19.7933L39.0024 19.8036ZM59.2194 25.7312H61.6432V18.7493C61.6432 15.4367 59.576 13.6951 56.9455 13.6951C56.2575 13.6678 55.572 13.7926 54.9378 14.0606C54.3036 14.3286 53.7362 14.7331 53.2763 15.2454V9.81909H50.8266V25.7364H53.2711V19.1214C53.2711 16.9509 54.4494 15.8294 56.253 15.8294C58.0566 15.8294 59.2142 16.9457 59.2142 19.1214L59.2194 25.7312ZM73.6897 18.739H67.1367C67.1958 17.922 67.5635 17.158 68.1653 16.6023C68.7672 16.0466 69.5579 15.7407 70.377 15.7467C72.2013 15.7467 73.638 16.9095 73.6794 18.739H73.6897ZM76.1496 20.7183C76.2108 20.3199 76.2402 19.9173 76.2375 19.5142C76.2375 16.031 73.8551 13.6847 70.4856 13.6847C66.9868 13.6847 64.5837 16.0723 64.5837 19.7933C64.5837 23.5142 67.0954 25.9224 70.4856 25.9224C73.2194 25.9224 75.023 24.4392 75.7775 22.5374H73.0592C72.7869 22.9692 72.4031 23.3196 71.9483 23.5515C71.4936 23.7835 70.9846 23.8884 70.4752 23.8553C70.0476 23.8705 69.6212 23.8012 69.2203 23.6515C68.8195 23.5018 68.4521 23.2745 68.1391 22.9827C67.8262 22.6908 67.5739 22.3402 67.3965 21.9508C67.2192 21.5613 67.1204 21.1408 67.1057 20.7131L76.1496 20.7183ZM87.5657 18.739H81.0179C81.0792 17.9274 81.4451 17.169 82.0422 16.6159C82.6394 16.0629 83.4236 15.7561 84.2375 15.7571C86.0618 15.7571 87.4985 16.9199 87.5398 18.7493L87.5657 18.739ZM90.0049 20.7287C90.0663 20.3303 90.0957 19.9276 90.0928 19.5245C90.0928 16.0413 87.7104 13.6951 84.3409 13.6951C80.8421 13.6951 78.439 16.0827 78.439 19.8036C78.439 23.5245 80.9507 25.9328 84.3409 25.9328C87.0747 25.9328 88.8783 24.4496 89.6328 22.5478H86.9145C86.6422 22.9796 86.2584 23.3299 85.8036 23.5619C85.3489 23.7938 84.8399 23.8987 84.3305 23.8656C83.9029 23.8808 83.4765 23.8115 83.0756 23.6618C82.6748 23.5121 82.3074 23.2848 81.9944 22.993C81.6815 22.7012 81.4292 22.3505 81.2518 21.9611C81.0745 21.5717 80.9757 21.1511 80.961 20.7235L90.0049 20.7287ZM96.9352 25.7416H98.868V23.6744H97.3641C96.3305 23.6744 95.9894 23.3075 95.9894 22.4289V15.8863H98.8628V13.8863H96.0204V10.9405H93.5398V13.8863H92.1445V15.8863H93.5398V22.4496C93.5398 24.8578 94.8473 25.7416 96.9507 25.7416H96.9352ZM110.641 19.8036C110.641 22.3876 108.904 23.8036 107.059 23.8036C105.214 23.8036 103.478 22.3204 103.478 19.7571C103.478 17.1938 105.24 15.8191 107.059 15.8191C108.878 15.8191 110.641 17.261 110.641 19.7984V19.8036ZM110.641 25.7364H113.106V13.8863H110.641V15.6072C110.154 14.9906 109.53 14.4965 108.819 14.1644C108.107 13.8324 107.327 13.6716 106.542 13.6951C103.442 13.6951 100.961 16.1033 100.961 19.7622C100.961 23.4212 103.431 25.938 106.496 25.938C107.29 25.9571 108.078 25.7899 108.796 25.4498C109.514 25.1097 110.142 24.606 110.63 23.9793L110.641 25.7364ZM127.648 13.8863H125.116L121.664 22.9199L118.336 13.8863H115.612L120.263 25.5452L118.098 30.7442H120.63L127.648 13.8863Z" fill="black"/>
<path d="M8.7208 13.6911C8.88069 14.4498 8.81207 15.2389 8.52359 15.9586C8.23511 16.6783 7.73974 17.2964 7.10008 17.7346C6.46042 18.1729 5.70519 18.4117 4.92985 18.4208C4.15452 18.4299 3.39388 18.2089 2.74409 17.7859C2.0943 17.3628 1.58453 16.7565 1.27921 16.0438C0.973885 15.3311 0.886722 14.5438 1.02873 13.7815C1.17075 13.0192 1.53556 12.3162 2.07706 11.7612C2.61856 11.2062 3.31244 10.8242 4.07099 10.6635C4.57511 10.5567 5.09534 10.5503 5.60193 10.6447C6.10853 10.7391 6.59155 10.9324 7.02339 11.2136C7.45523 11.4947 7.82742 11.8583 8.11867 12.2834C8.40992 12.7085 8.61453 13.1868 8.7208 13.6911" fill="#FF4F00"/>
<path d="M32.461 5.63125C32.6209 6.38997 32.5523 7.17907 32.2638 7.8988C31.9754 8.61852 31.48 9.23657 30.8403 9.67482C30.2007 10.1131 29.4454 10.3518 28.6701 10.361C27.8948 10.3701 27.1341 10.1491 26.4843 9.72604C25.8345 9.30296 25.3248 8.69673 25.0194 7.98398C24.7141 7.27124 24.627 6.48397 24.769 5.7217C24.911 4.95943 25.2758 4.25637 25.8173 3.70139C26.3588 3.1464 27.0527 2.76442 27.8112 2.60371C28.3153 2.4969 28.8356 2.4905 29.3422 2.58488C29.8488 2.67926 30.3318 2.87257 30.7636 3.15374C31.1955 3.43492 31.5677 3.79845 31.8589 4.22356C32.1502 4.64867 32.3548 5.12701 32.461 5.63125" fill="#FF4F00"/>
<path d="M23.399 3.09975C23.5589 3.85848 23.4903 4.64757 23.2018 5.3673C22.9133 6.08703 22.418 6.70508 21.7783 7.14333C21.1386 7.58157 20.3834 7.82035 19.6081 7.82947C18.8327 7.83858 18.0721 7.61763 17.4223 7.19455C16.7725 6.77146 16.2628 6.16524 15.9574 5.45249C15.6521 4.73975 15.5649 3.95248 15.707 3.19021C15.849 2.42793 16.2138 1.72487 16.7553 1.16989C17.2968 0.614911 17.9907 0.232923 18.7492 0.0722125C19.2533 -0.0345931 19.7736 -0.0409892 20.2802 0.0533896C20.7867 0.147768 21.2698 0.341072 21.7016 0.622247C22.1335 0.903423 22.5056 1.26696 22.7969 1.69207C23.0881 2.11717 23.2928 2.59552 23.399 3.09975" fill="#FF4F00"/>
<path d="M14.4044 6.15835C14.5643 6.91707 14.4957 7.70617 14.2072 8.4259C13.9187 9.14562 13.4233 9.76367 12.7837 10.2019C12.144 10.6402 11.3888 10.8789 10.6134 10.8881C9.83811 10.8972 9.07748 10.6762 8.42769 10.2531C7.7779 9.83006 7.26812 9.22383 6.9628 8.51108C6.65748 7.79834 6.57032 7.01107 6.71233 6.2488C6.85434 5.48653 7.21915 4.78347 7.76065 4.22849C8.30215 3.6735 8.99603 3.29152 9.75458 3.13081C10.2587 3.024 10.7789 3.0176 11.2855 3.11198C11.7921 3.20636 12.2751 3.39967 12.707 3.68084C13.1388 3.96202 13.511 4.32555 13.8023 4.75066C14.0935 5.17577 14.2981 5.65411 14.4044 6.15835" fill="#FF4F00"/>
<path d="M29.2007 18.0514C29.5846 19.872 29.42 21.7656 28.7278 23.4927C28.0356 25.2198 26.8468 26.7028 25.3118 27.7543C23.7767 28.8058 21.9644 29.3785 20.1038 29.4001C18.2433 29.4216 16.4182 28.8909 14.8592 27.8752C13.3003 26.8595 12.0775 25.4044 11.3455 23.6938C10.6135 21.9832 10.4052 20.0939 10.7469 18.2649C11.0886 16.4359 11.9649 14.7493 13.2651 13.4183C14.5653 12.0873 16.231 11.1718 18.0515 10.7874C19.2605 10.5321 20.508 10.5175 21.7227 10.7445C22.9374 10.9714 24.0955 11.4354 25.1308 12.1099C26.1661 12.7845 27.0585 13.6564 27.7568 14.6758C28.4551 15.6953 28.9457 16.8423 29.2007 18.0514" fill="#FF4F00"/>
<path d="M19.9942 32.1456C16.7714 32.1456 13.6806 30.8654 11.4018 28.5865C9.12292 26.3077 7.84268 23.2169 7.84268 19.9941V19.9941H3.96313e-07C-0.000796696 23.998 1.2008 27.9098 3.44911 31.2228C5.69743 34.5357 8.88884 37.0972 12.6099 38.5752C16.3309 40.0533 20.41 40.3798 24.3188 39.5126C28.2276 38.6453 31.7858 36.6242 34.5326 33.7111L28.8495 28.3173C27.7147 29.5284 26.3431 30.4932 24.8197 31.1518C23.2963 31.8104 21.6538 32.1486 19.9942 32.1456" fill="black"/>
</g>
<defs>
<clipPath id="clip0">
<rect width="127.628" height="40" fill="white"/>
</clipPath>
</defs>
</svg>
