<svg width="18" height="18" viewBox="0 0 18 18" fill="none" xmlns="http://www.w3.org/2000/svg">
<path d="M17.9495 13.3615C18.09 13.078 17.9144 12.8299 17.7036 12.7944C15.2448 12.4046 14.1559 9.85279 14.0856 9.74646C13.9451 9.46293 13.9451 9.25028 14.0154 9.07307C14.1559 8.75409 14.6828 8.57689 14.9989 8.47056C15.1043 8.43512 15.2097 8.39968 15.2799 8.36424C15.8771 8.11614 16.1932 7.83261 16.1932 7.47819C16.1581 7.2301 15.9824 6.98201 15.6312 6.84024C15.4204 6.76936 15.1394 6.76936 14.9286 6.84024C14.6125 6.98201 14.3666 7.05289 14.1207 7.08834C13.9802 7.05289 13.8749 7.01745 13.8397 6.98201C13.91 5.70611 14.0856 3.89858 13.629 2.87078C12.7859 0.956925 11.0296 0 9.16795 0C9.13282 0 8.85181 0 8.81668 0C8.07903 0 5.58507 0.21265 4.39078 2.90622C3.93414 3.89858 4.10977 5.74155 4.18002 6.98201C4.10977 7.01745 4.00439 7.08834 3.82876 7.08834C3.58288 7.08834 3.33699 7.01745 3.02086 6.84024C2.59934 6.66304 1.93194 6.94657 1.86169 7.40731C1.79144 7.6554 1.93194 8.04526 2.73985 8.36424C3.05598 8.506 3.82876 8.64777 4.00439 9.07307C4.07464 9.25028 4.07464 9.46293 3.93414 9.74646C3.86389 9.85279 2.77497 12.4046 0.316136 12.7944C0.140505 12.8299 0 13.0071 0 13.1843H0.0351262C0.0702525 13.9286 1.68606 14.2121 2.42371 14.3539C2.49396 14.4248 2.56422 14.8501 2.66959 15.2045C2.70472 15.3462 2.8101 15.5235 3.09111 15.5235C3.37212 15.5235 3.79363 15.3462 4.46103 15.3462C5.37431 15.3462 5.69045 15.5589 6.4281 16.0905C6.95499 16.4449 7.86828 17.1183 8.99232 17.0474C10.0812 17.0829 10.8189 16.6221 11.5917 16.0905C12.3293 15.5589 12.6454 15.3462 13.5587 15.3462C14.2613 15.3462 14.6125 15.488 14.9286 15.488C15.1745 15.488 15.315 15.3817 15.3502 15.169C15.4555 14.8501 15.5258 14.4248 15.596 14.3184C17.0011 14.1058 17.7739 13.7868 17.9495 13.3615Z" fill="black"/>
</svg>
