<svg width="18" height="15" viewBox="0 0 18 15" fill="none" xmlns="http://www.w3.org/2000/svg">
<path d="M16.1683 3.62818C16.8728 3.0998 17.5068 2.46575 18 1.72603C17.3659 2.00783 16.6262 2.21918 15.8865 2.28963C16.6614 1.8317 17.225 1.1272 17.5068 0.246575C16.8023 0.669276 15.9922 0.986301 15.182 1.16243C14.4775 0.422701 13.5264 0 12.4697 0C10.4266 0 8.77104 1.65558 8.77104 3.69863C8.77104 3.98043 8.80626 4.26223 8.87671 4.54403C5.81213 4.36791 3.06458 2.88845 1.23288 0.669276C0.915851 1.19765 0.739726 1.8317 0.739726 2.5362C0.739726 3.80431 1.37378 4.93151 2.3953 5.60078C1.79648 5.56556 1.19765 5.42466 0.704501 5.14286V5.17808C0.704501 6.97456 1.9726 8.45401 3.6634 8.80626C3.3816 8.87671 3.02935 8.94716 2.71233 8.94716C2.46575 8.94716 2.2544 8.91194 2.00783 8.87671C2.46575 10.3562 3.83953 11.4129 5.45988 11.4481C4.19178 12.4344 2.60665 13.0333 0.880626 13.0333C0.563601 13.0333 0.2818 12.998 0 12.9628C1.62035 14.0196 3.55773 14.6184 5.67123 14.6184C12.4697 14.6184 16.1683 9.01761 16.1683 4.12133C16.1683 3.94521 16.1683 3.80431 16.1683 3.62818Z" fill="black"/>
</svg>
