<svg width="32" height="32" viewBox="0 0 32 32" fill="none" xmlns="http://www.w3.org/2000/svg">
<path fill-rule="evenodd" clip-rule="evenodd" d="M14.8406 2.361C15.1812 2.12591 15.5853 2 15.9992 2C16.4131 2 16.8172 2.12591 17.1578 2.361C17.496 2.59439 17.7558 2.92444 17.9032 3.30784L20.6572 10.2432C20.6608 10.2525 20.6669 10.2605 20.6749 10.2664C20.6825 10.272 20.6916 10.2755 20.701 10.2764C20.7014 10.2764 20.7018 10.2764 20.7022 10.2765L28.0787 10.7552C29.982 10.8787 30.6496 13.2687 29.2486 14.4347L23.6 19.1361C23.5996 19.1365 23.5993 19.1368 23.5989 19.1371C23.5858 19.1484 23.5761 19.1632 23.5708 19.1797C23.5654 19.1967 23.5649 19.2148 23.5693 19.2321L23.57 19.2347L25.3915 26.4C25.8341 28.1412 23.9557 29.717 22.3198 28.6805L16.0154 24.6863L16.5506 23.8416L16.0136 24.6852C16.0093 24.6824 16.0043 24.681 15.9992 24.681C15.9961 24.681 15.993 24.6815 15.9901 24.6826C15.9882 24.6832 15.9865 24.6841 15.9848 24.6852L15.983 24.6863L10.1243 28.3982C8.32726 29.5367 6.24874 27.809 6.7392 25.8797L8.42842 19.2347L8.42907 19.2321C8.43351 19.2148 8.43299 19.1967 8.42756 19.1797C8.42228 19.1632 8.41257 19.1484 8.39949 19.1371C8.39913 19.1368 8.39876 19.1365 8.3984 19.1361L2.74976 14.4347C1.34879 13.2687 2.01639 10.8787 3.91968 10.7552L11.2974 10.2764C11.3068 10.2755 11.3159 10.272 11.3235 10.2664C11.3315 10.2605 11.3376 10.2525 11.3412 10.2432L11.344 10.236L14.0952 3.30784C14.2426 2.92443 14.5024 2.59439 14.8406 2.361ZM17.0866 22.9973C17.0869 22.9976 17.0872 22.9978 17.0876 22.998L23.3902 26.9911C23.397 26.9954 23.4018 26.9977 23.4045 26.9989L23.4062 26.9995C23.4095 26.9985 23.4166 26.9958 23.426 26.9887C23.4407 26.9776 23.4501 26.9636 23.4544 26.952C23.4564 26.9468 23.4578 26.9409 23.4582 26.9335C23.4586 26.9264 23.4583 26.9132 23.4531 26.8927L21.6323 19.73C21.6322 19.7295 21.6321 19.7291 21.632 19.7287C21.5341 19.3472 21.5459 18.9459 21.6658 18.5707C21.7859 18.1951 22.0095 17.8611 22.311 17.6069L22.3158 17.6029L27.9692 12.8975C27.9822 12.8867 27.9878 12.8788 27.9903 12.8749C27.9929 12.8707 27.995 12.8662 27.9965 12.8603C28 12.8472 28.0012 12.8244 27.993 12.7979C27.9847 12.7714 27.9724 12.7582 27.9686 12.7551C27.9673 12.7539 27.9671 12.754 27.9671 12.7539C27.9668 12.7539 27.9657 12.7534 27.9633 12.7528C27.9608 12.7523 27.9563 12.7514 27.9492 12.751L20.5597 12.2714C20.1719 12.2437 19.7999 12.1064 19.487 11.8754C19.1755 11.6454 18.9353 11.3319 18.7944 10.9712L16.042 4.04004L16.0365 4.02572C16.0336 4.01816 16.0285 4.01165 16.0218 4.00705C16.0152 4.00246 16.0073 4 15.9992 4C15.9911 4 15.9832 4.00246 15.9766 4.00705C15.9699 4.01165 15.9648 4.01816 15.9619 4.02572L15.9564 4.04004L13.204 10.9712C13.0631 11.3319 12.8229 11.6454 12.5113 11.8754C12.1985 12.1064 11.8265 12.2437 11.4387 12.2714L11.4322 12.2718L4.04921 12.751C4.04211 12.7514 4.03756 12.7523 4.03514 12.7528C4.0337 12.7532 4.03272 12.7535 4.0321 12.7537C4.03167 12.7538 4.0322 12.7536 4.0321 12.7537C4.03209 12.7537 4.03107 12.7539 4.02975 12.7551C4.02598 12.7582 4.01366 12.7714 4.0054 12.7979C3.99716 12.8244 3.99839 12.8472 4.00187 12.8603C4.0034 12.8662 4.00545 12.8707 4.0081 12.8749C4.01055 12.8788 4.0162 12.8867 4.02921 12.8975L9.68262 17.6029L9.68741 17.6069C9.98888 17.8611 10.2125 18.1951 10.3326 18.5707C10.4525 18.9458 10.4642 19.3471 10.3665 19.7285C10.3664 19.729 10.3662 19.7295 10.3661 19.73L8.67755 26.3724C8.6408 26.517 8.692 26.6271 8.78304 26.6962C8.82985 26.7318 8.87756 26.7473 8.91602 26.75C8.94818 26.7522 8.99271 26.7475 9.05391 26.7087L14.9108 22.998C14.9112 22.9978 14.9115 22.9976 14.9118 22.9973C15.2369 22.7907 15.614 22.681 15.9992 22.681C16.3844 22.681 16.7615 22.7907 17.0866 22.9973Z" fill="white"/>
</svg>
