<svg width="168" height="40" viewBox="0 0 168 40" fill="none" xmlns="http://www.w3.org/2000/svg">
<g clip-path="url(#clip0)">
<path d="M86.1678 3.81843e-06C83.5264 -0.00164735 80.9121 0.532217 78.4828 1.56935C76.0535 2.60647 73.8597 4.12534 72.034 6.03415C73.38 7.58911 75.1996 10.1374 75.7473 12.9966C77.3535 10.4618 79.8205 8.59162 82.695 7.72969C85.5694 6.86776 88.6584 7.07195 91.3944 8.30475C94.1304 9.53755 96.3297 11.7162 97.5883 14.4404C98.8469 17.1646 99.0803 20.2515 98.2456 23.134C97.4108 26.0165 95.5641 28.501 93.0445 30.1311C90.525 31.7613 87.5018 32.4276 84.5304 32.0076C81.5591 31.5876 78.839 30.1096 76.8699 27.8451C74.9008 25.5805 73.8149 22.6815 73.8117 19.6806C73.8117 19.4207 73.8117 19.1654 73.8349 18.9101C73.8117 18.3345 73.7653 17.7868 73.6957 17.253C73.3057 14.0573 72.1199 11.0106 70.2469 8.39211C70.2353 8.37192 70.2213 8.35322 70.2052 8.33641C70.1945 8.31819 70.1821 8.30109 70.168 8.28535C67.8274 5.00143 64.5329 2.51727 60.7319 1.17008C56.9309 -0.177105 52.8074 -0.322069 48.9211 0.754867C45.0349 1.8318 41.5741 4.07848 39.0086 7.18992C36.4431 10.3014 34.8972 14.1269 34.5807 18.1471C34.2641 22.1674 35.1923 26.1877 37.2392 29.6623C39.2861 33.1369 42.3526 35.8975 46.0224 37.5694C49.6922 39.2413 53.7876 39.7435 57.7526 39.0078C61.7177 38.2721 65.3603 36.3342 68.186 33.457C66.1437 31.6004 65.0344 28.5322 64.4727 26.4946C62.837 29.0033 60.3529 30.8394 57.4748 31.6671C54.5966 32.4948 51.5166 32.2588 48.7981 31.0023C46.0796 29.7457 43.9042 27.5526 42.6698 24.824C41.4354 22.0954 41.2245 19.0136 42.0755 16.1423C42.9266 13.2709 44.7828 10.8018 47.3047 9.18654C49.8267 7.57129 52.8457 6.9178 55.8099 7.34559C58.774 7.77337 61.4851 9.25384 63.4474 11.5163C65.4097 13.7787 66.492 16.6718 66.4965 19.6667C66.496 20.7128 66.5782 21.7574 66.7425 22.7905C67.2183 25.7768 68.385 28.6108 70.1495 31.0666C70.8249 32.0192 71.5863 32.9079 72.4239 33.7216C74.7291 35.972 77.5523 37.621 80.6448 38.5235C83.7374 39.4259 87.0044 39.5541 90.1581 38.8968C93.3119 38.2394 96.2556 36.8167 98.7301 34.7539C101.205 32.6911 103.134 30.0514 104.348 27.0675C105.562 24.0835 106.024 20.8468 105.693 17.6424C105.362 14.4379 104.248 11.364 102.449 8.69143C100.65 6.01884 98.222 3.82955 95.378 2.31635C92.534 0.803143 89.3615 0.0124581 86.1399 0.0139282L86.1678 3.81843e-06Z" fill="#00F076"/>
<path d="M25.6962 6.72635C25.6962 9.1712 24.725 11.5159 22.9962 13.2447C21.2674 14.9735 18.9227 15.9447 16.4779 15.9447C14.033 15.9447 11.6883 14.9735 9.95953 13.2447C8.23076 11.5159 7.25955 9.1712 7.25955 6.72635V0.0145264H0V8.10029C0.0201778 10.3467 0.556897 12.5583 1.56863 14.5641C2.58036 16.5698 4.03998 18.3159 5.83456 19.6673L5.76029 19.723C3.9879 21.077 2.54807 22.8178 1.55061 24.8127C0.55315 26.8076 0.024387 29.004 0.00464265 31.2343V39.2875H7.25491V32.6036C7.25491 30.1587 8.22612 27.814 9.95489 26.0852C11.6837 24.3565 14.0284 23.3852 16.4732 23.3852C18.9181 23.3852 21.2628 24.3565 22.9916 26.0852C24.7203 27.814 25.6916 30.1587 25.6916 32.6036V39.2875H32.9465V31.2343C32.9276 28.9898 32.3928 26.7797 31.3835 24.7748C30.3742 22.7699 28.9175 21.024 27.1258 19.6719L27.2001 19.6162C28.9723 18.2611 30.412 16.5193 31.4094 14.5237C32.4068 12.5281 32.9357 10.3312 32.9557 8.10029V0.0145264H25.6962V6.72635Z" fill="#00F076"/>
<path d="M151.522 0.013902C146.3 0.013902 141.649 2.14442 138.632 5.4632C136.978 3.71195 134.978 2.32333 132.759 1.3853C130.54 0.447268 128.151 -0.0197227 125.742 0.013902C116.645 0.013902 109.26 6.51222 109.26 14.4819V39.2869H116.519V15.7862C116.519 10.9311 120.65 6.99959 125.742 6.99959C130.834 6.99959 134.965 10.9311 134.965 15.7862V39.2869H142.29V15.7862C142.29 10.9311 146.421 6.99959 151.522 6.99959C156.623 6.99959 160.745 10.9311 160.745 15.7862V39.2869H168V14.4819C168 6.49365 160.624 0.013902 151.522 0.013902Z" fill="#00F076"/>
</g>
<defs>
<clipPath id="clip0">
<rect width="168" height="39.3009" fill="white"/>
</clipPath>
</defs>
</svg>
